<svg width="48" height="48" viewBox="0 0 48 48" fill="none" xmlns="http://www.w3.org/2000/svg">
<g clip-path="url(#clip0_384_644)">
<path fill-rule="evenodd" clip-rule="evenodd" d="M14.9053 15.1577H33.0947C34.3505 15.1577 35.3684 16.1757 35.3684 17.4314V31.0735C35.3684 32.3292 34.3505 33.3472 33.0947 33.3472H14.9053C13.6434 33.3472 12.6316 32.324 12.6316 31.0735V17.4314C12.6316 16.1695 13.6434 15.1577 14.9053 15.1577ZM24 23.1156L33.0947 17.4314H14.9053L24 23.1156ZM14.9053 31.0735H33.0947V20.1257L24 25.7986L14.9053 20.1257V31.0735Z" fill="#1E1F20"/>
<mask id="mask0_384_644" style="mask-type:luminance" maskUnits="userSpaceOnUse" x="12" y="15" width="24" height="19">
<path fill-rule="evenodd" clip-rule="evenodd" d="M14.9053 15.1577H33.0947C34.3505 15.1577 35.3684 16.1757 35.3684 17.4314V31.0735C35.3684 32.3292 34.3505 33.3472 33.0947 33.3472H14.9053C13.6434 33.3472 12.6316 32.324 12.6316 31.0735V17.4314C12.6316 16.1695 13.6434 15.1577 14.9053 15.1577ZM24 23.1156L33.0947 17.4314H14.9053L24 23.1156ZM14.9053 31.0735H33.0947V20.1257L24 25.7986L14.9053 20.1257V31.0735Z" fill="white"/>
</mask>
<g mask="url(#mask0_384_644)">
</g>
</g>
<defs>
<clipPath id="clip0_384_644">
<rect width="48" height="48" fill="white"/>
</clipPath>
</defs>
</svg>
