<svg width="18" height="18" viewBox="0 0 18 18" fill="none" xmlns="http://www.w3.org/2000/svg">
<path fill-rule="evenodd" clip-rule="evenodd" d="M4 12H6C6 13.08 7.37 14 9 14C10.63 14 12 13.08 12 12C12 10.9 10.96 10.5 8.76 9.97C6.64 9.44 4 8.78 4 6C4 4.21 5.47 2.69 7.5 2.18V0H10.5V2.18C12.53 2.69 14 4.21 14 6H12C12 4.92 10.63 4 9 4C7.37 4 6 4.92 6 6C6 7.1 7.04 7.5 9.24 8.03C11.36 8.56 14 9.22 14 12C14 13.79 12.53 15.31 10.5 15.82V18H7.5V15.82C5.47 15.31 4 13.79 4 12Z" fill="#1E1F20"/>
<mask id="mask0_0_459" style="mask-type:luminance" maskUnits="userSpaceOnUse" x="4" y="0" width="10" height="18">
<path fill-rule="evenodd" clip-rule="evenodd" d="M4 12H6C6 13.08 7.37 14 9 14C10.63 14 12 13.08 12 12C12 10.9 10.96 10.5 8.76 9.97C6.64 9.44 4 8.78 4 6C4 4.21 5.47 2.69 7.5 2.18V0H10.5V2.18C12.53 2.69 14 4.21 14 6H12C12 4.92 10.63 4 9 4C7.37 4 6 4.92 6 6C6 7.1 7.04 7.5 9.24 8.03C11.36 8.56 14 9.22 14 12C14 13.79 12.53 15.31 10.5 15.82V18H7.5V15.82C5.47 15.31 4 13.79 4 12Z" fill="white"/>
</mask>
<g mask="url(#mask0_0_459)">
</g>
</svg>
