<svg width="78" height="76" viewBox="0 0 78 76" fill="none" xmlns="http://www.w3.org/2000/svg">
<path fill-rule="evenodd" clip-rule="evenodd" d="M6.5 23.9201V69.4201H65V75.9201H6.5C2.90875 75.9201 0 73.0276 0 69.4201V23.9201H6.5ZM74.8475 18.3625L45.5 0L16.1525 18.3625C14.2675 19.5 13 21.5475 13 23.92V56.42C13 59.995 15.925 62.92 19.5 62.92H71.5C75.075 62.92 78 59.995 78 56.42V23.92C78 21.5475 76.7325 19.5 74.8475 18.3625ZM71.5 56.4201H19.5V30.4201L45.5 46.6701L71.5 30.4201V56.4201ZM45.5 40.1701L19.5 23.9201L45.5 7.67006L71.5 23.9201L45.5 40.1701Z" fill="#8F92A1"/>
</svg>
