<svg width="24" height="24" viewBox="0 0 24 24" fill="none" xmlns="http://www.w3.org/2000/svg">
<path fill-rule="evenodd" clip-rule="evenodd" d="M8.53334 10.8V13.2H6.13335V10.8H8.53334ZM13.3333 10.8V13.2H10.9333V10.8H13.3333ZM18.1333 10.8V13.2H15.7333V10.8H18.1333ZM20.5333 2.4C21.8588 2.4 22.9333 3.47452 22.9333 4.8V21.6C22.9333 22.9255 21.8588 24 20.5333 24H3.73331C2.40131 24 1.33331 22.92 1.33331 21.6V4.8C1.33331 3.47452 2.40783 2.4 3.73331 2.4H4.93331V0H7.33331V2.4H16.9333V0H19.3333V2.4H20.5333ZM20.5333 21.6V8.4H3.73333V21.6H20.5333ZM8.53334 15.6V18H6.13335V15.6H8.53334ZM13.3333 15.6V18H10.9333V15.6H13.3333ZM18.1333 15.6V18H15.7333V15.6H18.1333Z" fill="#666AEC"/>
</svg>
